mtllib rock.mtl
o Rock8_Cube.008
g a
v -1.119404 -0.764537 -0.547136
v 1.399570 0.540731 -1.022841
v 1.413287 -0.273468 -0.902148
v -1.172721 0.093958 1.402412
v -1.080153 0.865330 1.255036
v 1.329221 0.045618 1.309301
v -0.643763 1.420040 -1.224376
v 0.020296 1.214289 -1.710389
v 0.915757 -0.792192 -0.639235
v -0.374334 0.737993 -1.873021
v -1.271735 -0.745475 1.027041
v -1.029500 -0.830713 1.098436
v -0.973993 -0.694227 -1.014725
v 1.017013 1.025506 1.228902
v 1.374879 -0.391878 1.155121
v 1.121893 -0.694686 1.164120
v -1.098280 1.181482 -1.188369
v -1.345334 0.654379 -1.194198
v -1.317432 -0.158829 -1.098900
v -0.684342 1.173787 1.284924
v 1.079402 1.132332 0.514482
v -0.476783 -0.848053 1.336555
v 0.425280 -0.764467 1.453385
v 1.118426 -0.739585 0.738949
v -0.807243 1.619796 -0.331370
v -0.258626 1.547700 -0.787652
v -1.067008 1.493671 0.368189
v -0.325701 1.477940 1.067199
v 0.353591 1.381837 1.064703
v 0.733781 0.150490 1.656258
v 0.410996 -0.425042 1.685005
v 0.698131 0.858495 1.522576
v -0.364833 0.538354 1.687403
v 0.933621 -0.461640 1.500665
v -0.253475 -0.070205 1.784782
v -1.050675 -0.647700 1.400153
v -0.732513 -0.384396 1.634142
v -1.626642 -0.478653 0.452371
v -1.764092 -0.168017 0.198964
v -1.686817 0.415090 0.720071
v -1.801326 0.651341 0.020681
v -1.550911 1.026268 0.453573
v -1.723883 0.085694 -0.451651
v -1.547149 1.214245 -0.225799
v -1.613232 -0.248076 0.846850
v -1.218759 1.354710 -0.780812
v -1.581981 0.953913 -0.717131
v -1.511929 -0.554223 -0.212394
v -0.849477 -0.807525 0.240442
v -0.126577 -0.826782 -1.047014
v 1.732352 0.431257 -0.154457
v 1.808477 -0.074961 0.036790
v 1.429014 0.840912 0.740501
v 1.697753 0.003964 -0.556669
v 1.461146 0.804405 -0.523060
v 1.431132 0.659858 0.998447
v 1.714151 0.205533 0.649848
v 1.656398 -0.336420 0.651237
v 1.599540 -0.533315 0.259434
v 1.554649 -0.504131 -0.408983
v -0.820260 -0.082545 -1.465284
v -1.090576 0.371773 -1.426994
v -0.454240 1.046418 -1.795763
v 0.212732 1.000943 -1.893681
v 0.810935 0.746662 -1.628731
v 0.273589 0.771187 -1.905018
v 0.066975 -0.383218 -1.435173
v -0.500431 1.609316 0.622147
v -1.122346 1.222303 0.941724
v 1.128997 0.425086 1.433054
v 0.383507 1.200738 1.381112
v -0.175812 1.206511 1.418765
v -0.372092 -0.631428 1.661693
v -1.342136 -0.514431 -0.798104
v -0.733120 -0.878560 -0.543118
v -0.296046 -0.666244 -1.260351
v 1.038677 -0.594397 -1.006686
v 0.815186 1.072945 -1.374865
vt 0.444671 0.935402
vt 0.445686 0.935949
vt 0.444815 0.937149
vt 0.445796 0.935280
vt 0.446471 0.936447
vt 0.446211 0.937323
vt 0.445382 0.937764
vt 0.446905 0.935913
vt 0.446807 0.937117
vt 0.445844 0.937996
vt 0.445522 0.939038
vt 0.445088 0.938888
vt 0.445010 0.938509
vt 0.444726 0.938174
vt 0.442695 0.939058
vt 0.443195 0.939767
vt 0.442545 0.939720
vt 0.444377 0.938701
vt 0.443893 0.939774
vt 0.443374 0.938859
vt 0.442196 0.938115
vt 0.442622 0.938498
vt 0.442022 0.938709
vt 0.442831 0.938011
vt 0.443334 0.938124
vt 0.443833 0.938366
vt 0.444325 0.940371
vt 0.443495 0.940484
vt 0.442937 0.940155
vt 0.442642 0.940324
vt 0.442592 0.940531
vt 0.441064 0.939174
vt 0.441714 0.939253
vt 0.444203 0.931431
vt 0.443629 0.931876
vt 0.443693 0.931201
vt 0.443052 0.932320
vt 0.443000 0.931756
vt 0.444264 0.932044
vt 0.443853 0.932554
vt 0.443062 0.931095
vt 0.442786 0.931435
vt 0.442614 0.930843
vt 0.444169 0.930622
vt 0.443562 0.930610
vt 0.444547 0.930959
vt 0.444609 0.931568
vt 0.444678 0.933403
vt 0.443590 0.933060
vt 0.442483 0.932714
vt 0.442607 0.932084
vt 0.441813 0.935929
vt 0.441878 0.937591
vt 0.440202 0.935908
vt 0.439861 0.936808
vt 0.440900 0.934592
vt 0.439560 0.936085
vt 0.441324 0.935158
vt 0.442095 0.935369
vt 0.441867 0.934416
vt 0.442586 0.936219
vt 0.443225 0.936765
vt 0.442640 0.937022
vt 0.443810 0.935735
vt 0.444186 0.936214
vt 0.443741 0.936580
vt 0.443222 0.936130
vt 0.444403 0.937429
vt 0.444117 0.937786
vt 0.443560 0.937377
vt 0.442744 0.935626
vt 0.443813 0.934089
vt 0.444368 0.934733
vt 0.443844 0.934632
vt 0.443270 0.933351
vt 0.442693 0.933644
vt 0.442761 0.933039
vt 0.444573 0.934344
vt 0.445737 0.934541
vt 0.444955 0.934966
vt 0.443977 0.935136
vt 0.442311 0.934447
vt 0.447028 0.936562
vt 0.446812 0.937867
vt 0.443001 0.930584
vt 0.444506 0.932432
vt 0.442319 0.932449
vt 0.439511 0.935785
vt 0.439439 0.937513
vt 0.442957 0.937415
vn 0.3660 0.9271 -0.0803
vn -0.0626 0.9715 -0.2288
vn 0.2565 0.9665 0.0018
vn -0.3052 0.9159 -0.2607
vn -0.2364 0.9678 0.0867
vn -0.2185 0.7251 0.6530
vn 0.0485 0.8005 0.5974
vn 0.3364 0.8307 0.4436
vn 0.0289 -0.2200 0.9751
vn 0.0945 0.1893 0.9774
vn 0.3401 -0.6733 0.6565
vn 0.6235 -0.2012 0.7555
vn 0.5010 -0.0178 0.8652
vn 0.0650 0.4317 0.8997
vn 0.0346 0.3644 0.9306
vn -0.3519 0.3682 0.8606
vn -0.3706 0.0803 0.9253
vn -0.4295 0.2189 0.8761
vn -0.5398 -0.0914 0.8368
vn -0.4116 -0.7917 0.4514
vn -0.2380 -0.8378 0.4915
vn -0.9140 0.3149 0.2560
vn -0.9942 -0.0640 -0.0864
vn -0.9237 0.3618 -0.1262
vn -0.8337 -0.4639 0.2995
vn -0.7301 0.2117 0.6497
vn -0.7635 0.3932 0.5124
vn -0.6631 0.7224 0.1962
vn -0.7330 0.3500 -0.5833
vn -0.8750 -0.3947 -0.2805
vn -0.5904 -0.8071 -0.0101
vn -0.8779 -0.4686 -0.0982
vn 0.0540 -0.9981 0.0302
vn 0.0111 -0.9957 0.0919
vn -0.2736 -0.9350 -0.2257
vn 0.0498 -0.9979 -0.0426
vn 0.1668 -0.7196 -0.6740
vn 0.0859 -0.9951 0.0487
vn -0.0498 -0.9981 -0.0374
vn 0.8919 -0.4451 -0.0793
vn 0.8876 0.3531 -0.2956
vn 0.9816 0.0826 -0.1722
vn 0.8962 0.3665 0.2499
vn 0.8413 -0.3554 -0.4074
vn 0.4867 0.8683 -0.0954
vn 0.7217 0.5693 0.3937
vn 0.7538 0.1929 0.6282
vn 0.8692 -0.0812 0.4877
vn 0.3770 -0.9260 -0.0201
vn -0.0511 0.0357 -0.9981
vn -0.5471 -0.2584 -0.7962
vn -0.7314 -0.1041 -0.6740
vn -0.5514 0.0655 -0.8317
vn -0.4112 0.6944 -0.5905
vn -0.0741 0.6106 -0.7885
vn 0.5209 0.5200 -0.6770
vn 0.4570 0.1642 -0.8742
vn 0.7178 0.4217 -0.5540
vn 0.1734 -0.6689 -0.7229
vn 0.3126 0.9497 -0.0183
vn 0.1102 0.9936 -0.0245
vn 0.2720 0.9284 -0.2532
vn -0.4412 0.7715 -0.4584
vn -0.4870 0.8708 -0.0677
vn -0.3334 0.7762 0.5352
vn 0.1371 0.9634 0.2305
vn 0.1243 0.8662 0.4840
vn 0.4333 0.8851 0.1702
vn 0.5638 0.8082 0.1701
vn 0.5229 0.3602 0.7726
vn 0.1348 -0.0261 0.9905
vn 0.0890 0.1732 0.9809
vn 0.5885 -0.4722 0.6562
vn 0.4948 -0.0588 0.8670
vn 0.3793 0.1901 0.9055
vn 0.3406 0.6091 0.7162
vn -0.2560 0.4221 0.8696
vn -0.4780 0.5468 0.6874
vn -0.1914 -0.1715 0.9664
vn -0.3644 0.1124 0.9244
vn -0.2078 -0.7818 0.5878
vn 0.1220 -0.5559 0.8222
vn 0.0055 -0.8330 0.5532
vn 0.2463 -0.5392 0.8054
vn -0.9457 -0.2656 0.1874
vn -0.9736 -0.0663 0.2185
vn -0.9874 -0.0105 0.1581
vn -0.8840 0.4518 0.1201
vn -0.9640 0.0799 -0.2538
vn -0.7707 -0.3322 0.5437
vn -0.7918 0.0288 0.6101
vn -0.7542 0.3805 0.5351
vn -0.6420 0.7151 0.2764
vn -0.7335 0.6207 -0.2769
vn 0.7985 -0.0751 -0.5972
vn -0.6976 0.5616 -0.4449
vn -0.8583 -0.0887 -0.5055
vn -0.8936 0.0088 -0.4488
vn -0.8549 -0.2991 -0.4238
vn -0.6073 -0.4881 -0.6269
vn -0.9046 -0.3752 -0.2022
vn -0.6031 -0.7647 -0.2268
vn -0.4966 -0.8671 -0.0376
vn -0.0181 -0.9994 -0.0308
vn -0.1587 -0.9444 -0.2881
vn -0.5521 -0.7820 -0.2893
vn -0.1516 -0.8439 -0.5146
vn 0.1917 -0.8895 -0.4147
vn 0.1413 -0.9846 0.1028
vn 0.0479 -0.9974 -0.0532
vn -0.3266 -0.9450 -0.0202
vn -0.2832 -0.9580 0.0448
vn 0.9220 -0.3221 -0.2149
vn 0.9182 0.2296 -0.3229
vn 0.9192 -0.3889 0.0620
vn 0.9749 -0.1034 0.1973
vn 0.9821 0.1746 0.0712
vn 0.9114 0.3904 0.1302
vn 0.6468 -0.6027 -0.4673
vn -0.3400 0.8602 0.3800
vn 0.4778 -0.8302 -0.2871
vn 0.7374 0.5557 -0.3840
vn 0.8073 0.5902 0.0035
vn 0.6425 0.7663 -0.0058
vn 0.6713 0.3478 0.6545
vn 0.8435 0.1245 0.5225
vn 0.8736 -0.0919 0.4780
vn 0.7266 -0.5969 0.3402
vn 0.4662 -0.8802 0.0891
vn -0.2704 -0.5260 -0.8064
vn 0.4304 -0.9001 -0.0682
vn -0.0267 -0.3727 -0.9276
vn -0.1036 -0.3969 -0.9120
vn -0.4906 -0.4335 -0.7559
vn -0.4462 -0.1918 -0.8741
vn -0.5918 0.1228 -0.7967
vn -0.6208 0.2990 -0.7247
vn -0.1773 0.7957 -0.5791
vn -0.1280 0.2097 -0.9694
vn 0.3584 0.7730 -0.5235
vn 0.6980 -0.0935 -0.7099
vn 0.4213 -0.3218 -0.8479
vn 0.4853 -0.2988 -0.8217
vn 0.2938 -0.4050 -0.8658
vn -0.1103 -0.4160 -0.9026
vn 0.0550 0.9443 -0.3246
vn -0.4829 0.8754 -0.0215
vn 0.3213 -0.1334 0.9375
vn -0.3251 -0.3776 0.8670
vn -0.7391 -0.1236 0.6622
vn 0.6899 -0.6820 0.2426
usemtl Material
s off
f 78/1/1 26/2/1 21/3/1
f 7/4/2 25/5/2 26/2/2
f 26/2/3 68/6/3 29/7/3
f 46/8/4 25/5/4 7/4/4
f 25/5/5 27/9/5 68/6/5
f 28/10/6 20/11/6 72/12/6
f 28/10/7 72/12/7 71/13/7
f 29/7/8 71/13/8 14/14/8
f 31/15/9 35/16/9 73/17/9
f 32/18/10 33/19/10 30/20/10
f 16/21/11 34/22/11 23/23/11
f 15/24/12 6/25/12 34/22/12
f 70/26/13 30/20/13 6/25/13
f 71/13/14 72/12/14 32/18/14
f 72/12/15 33/19/15 32/18/15
f 20/11/16 5/27/16 33/19/16
f 33/19/17 4/28/17 35/16/17
f 5/27/18 4/28/18 33/19/18
f 37/29/19 4/28/19 36/30/19
f 36/30/20 11/31/20 12/32/20
f 22/33/21 36/30/21 12/32/21
f 42/34/22 41/35/22 40/36/22
f 41/35/23 43/37/23 39/38/23
f 44/39/24 47/40/24 41/35/24
f 45/41/25 38/42/25 11/43/25
f 5/44/26 40/36/26 4/45/26
f 69/46/27 42/34/27 40/36/27
f 27/47/28 44/39/28 42/34/28
f 47/40/29 17/48/29 18/49/29
f 43/37/30 74/50/30 48/51/30
f 38/42/31 48/51/31 11/43/31
f 39/38/32 48/51/32 38/42/32
f 9/52/33 24/53/33 75/54/33
f 24/53/34 49/55/34 75/54/34
f 13/56/35 75/54/35 1/57/35
f 9/52/36 75/54/36 50/58/36
f 77/59/37 50/58/37 76/60/37
f 24/53/38 23/23/38 22/33/38
f 49/55/39 12/32/39 1/57/39
f 60/61/40 52/62/40 59/63/40
f 2/64/41 55/65/41 51/66/41
f 54/67/42 51/66/42 52/62/42
f 53/68/43 56/69/43 57/70/43
f 3/71/44 54/67/44 60/61/44
f 78/1/45 21/3/45 55/65/45
f 53/68/46 14/14/46 56/69/46
f 56/69/47 70/26/47 6/25/47
f 57/70/48 6/25/48 15/24/48
f 9/52/49 59/63/49 24/53/49
f 10/72/50 64/73/50 66/74/50
f 62/75/51 61/76/51 19/77/51
f 18/49/52 62/75/52 19/77/52
f 63/78/53 10/72/53 62/75/53
f 17/79/54 7/4/54 63/78/54
f 63/78/55 8/80/55 64/73/55
f 64/73/56 78/1/56 65/81/56
f 66/74/57 64/73/57 65/81/57
f 65/81/58 78/1/58 2/64/58
f 76/60/59 67/82/59 77/59/59
f 21/3/60 26/2/60 29/7/60
f 26/2/61 25/5/61 68/6/61
f 78/1/62 8/80/62 26/2/62
f 17/79/63 46/8/63 7/4/63
f 46/8/64 44/83/64 25/5/64
f 28/10/65 69/84/65 20/11/65
f 28/10/66 29/7/66 68/6/66
f 29/7/67 28/10/67 71/13/67
f 21/3/68 29/7/68 14/14/68
f 21/3/69 14/14/69 53/68/69
f 70/26/70 14/14/70 32/18/70
f 31/15/71 30/20/71 35/16/71
f 30/20/72 33/19/72 35/16/72
f 16/21/73 15/24/73 34/22/73
f 34/22/74 6/25/74 30/20/74
f 70/26/75 32/18/75 30/20/75
f 14/14/76 71/13/76 32/18/76
f 72/12/77 20/11/77 33/19/77
f 20/11/78 69/84/78 5/27/78
f 73/17/79 35/16/79 37/29/79
f 37/29/80 35/16/80 4/28/80
f 22/33/81 73/17/81 36/30/81
f 73/17/82 23/23/82 31/15/82
f 22/33/83 23/23/83 73/17/83
f 23/23/84 34/22/84 31/15/84
f 45/41/85 39/38/85 38/42/85
f 45/41/86 40/36/86 39/38/86
f 40/36/87 41/35/87 39/38/87
f 42/34/88 44/39/88 41/35/88
f 43/37/89 41/35/89 47/40/89
f 36/85/90 45/41/90 11/43/90
f 4/45/91 40/36/91 45/41/91
f 5/44/92 69/46/92 40/36/92
f 69/46/93 27/47/93 42/34/93
f 47/40/94 44/39/94 46/86/94
f 54/67/95 3/71/95 2/64/95
f 46/86/96 17/48/96 47/40/96
f 43/37/97 18/49/97 19/77/97
f 43/37/98 47/40/98 18/49/98
f 43/37/99 19/77/99 74/50/99
f 74/50/100 19/77/100 13/56/100
f 39/38/101 43/37/101 48/51/101
f 1/87/102 48/51/102 74/50/102
f 11/43/103 48/51/103 1/87/103
f 49/55/104 22/33/104 12/32/104
f 13/56/105 50/58/105 75/54/105
f 74/88/106 13/56/106 1/57/106
f 13/56/107 76/60/107 50/58/107
f 77/59/108 9/52/108 50/58/108
f 23/23/109 24/53/109 16/21/109
f 49/55/110 24/53/110 22/33/110
f 1/57/111 12/32/111 11/89/111
f 1/57/112 75/54/112 49/55/112
f 60/61/113 54/67/113 52/62/113
f 54/67/114 2/64/114 51/66/114
f 59/63/115 52/62/115 58/90/115
f 58/90/116 52/62/116 57/70/116
f 52/62/117 51/66/117 57/70/117
f 51/66/118 53/68/118 57/70/118
f 3/71/119 60/61/119 77/59/119
f 68/6/120 27/9/120 69/84/120 28/10/120
f 77/59/121 60/61/121 9/52/121
f 2/64/122 78/1/122 55/65/122
f 55/65/123 53/68/123 51/66/123
f 55/65/124 21/3/124 53/68/124
f 56/69/125 14/14/125 70/26/125
f 57/70/126 56/69/126 6/25/126
f 58/90/127 57/70/127 15/24/127
f 16/21/128 58/90/128 15/24/128
f 24/53/129 59/63/129 16/21/129
f 13/56/130 61/76/130 76/60/130
f 9/52/131 60/61/131 59/63/131
f 67/82/132 10/72/132 66/74/132
f 61/76/133 10/72/133 67/82/133
f 19/77/134 61/76/134 13/56/134
f 62/75/135 10/72/135 61/76/135
f 18/49/136 63/78/136 62/75/136
f 18/49/137 17/79/137 63/78/137
f 63/78/138 7/4/138 8/80/138
f 10/72/139 63/78/139 64/73/139
f 64/73/140 8/80/140 78/1/140
f 3/71/141 65/81/141 2/64/141
f 77/59/142 66/74/142 65/81/142
f 77/59/143 65/81/143 3/71/143
f 67/82/144 66/74/144 77/59/144
f 61/76/145 67/82/145 76/60/145
f 26/2/146 8/80/146 7/4/146
f 25/5/147 44/83/147 27/9/147
f 31/15/148 34/22/148 30/20/148
f 37/29/149 36/30/149 73/17/149
f 45/41/150 36/85/150 4/45/150
f 58/90/151 16/21/151 59/63/151
